<?xml version="1.0" standalone="no"?>
<!DOCTYPE svg PUBLIC "-//W3C//DTD SVG 20010904//EN"
 "http://www.w3.org/TR/2001/REC-SVG-20010904/DTD/svg10.dtd">
<svg version="1.0" xmlns="http://www.w3.org/2000/svg"
 width="512.000000pt" height="512.000000pt" viewBox="0 0 512.000000 512.000000"
 preserveAspectRatio="xMidYMid meet">

<g transform="translate(0.000000,512.000000) scale(0.100000,-0.100000)"
fill="#000000" stroke="none">
<path d="M0 2560 l0 -2560 2560 0 2560 0 0 2560 0 2560 -2560 0 -2560 0 0
-2560z m4220 65 l0 -1595 -1660 0 -1660 0 0 1595 0 1595 1660 0 1660 0 0
-1595z"/>
<path d="M1976 3244 l-579 -586 147 -147 146 -146 -2 -475 -3 -475 -112 -3
-113 -3 0 -44 0 -45 1100 0 1100 0 0 45 0 45 -115 0 -115 0 0 477 0 478 147
147 148 148 -148 148 -147 147 0 348 0 347 -235 0 -235 0 0 -107 0 -108 -198
198 c-108 108 -200 197 -202 197 -3 0 -266 -264 -584 -586z"/>
</g>
</svg>
